# Blender 5.0.1
# www.blender.org
mtllib image_board.mtl
o ImageBoard
v -0.250000 -0.250000 0.005000
v -0.250000 0.250000 0.005000
v 0.250000 -0.250000 0.005000
v 0.250000 0.250000 0.005000
v -0.260000 0.260000 -0.005000
v -0.260000 -0.260000 -0.005000
v -0.260000 -0.260000 0.005000
v -0.260000 0.260000 0.005000
v 0.260000 0.260000 -0.005000
v 0.260000 0.260000 0.005000
v 0.260000 -0.260000 -0.005000
v 0.260000 -0.260000 0.005000
vn -1.0000 -0.0000 -0.0000
vn -0.0000 1.0000 -0.0000
vn 1.0000 -0.0000 -0.0000
vn -0.0000 -1.0000 -0.0000
vn -0.0000 -0.0000 1.0000
vn -0.0000 -0.0000 -1.0000
vt 0.000000 0.000000
vt 1.000000 0.000000
vt 1.000000 1.000000
vt 0.000000 1.000000
s 1
usemtl ImageBoard
f 6/1/1 7/2/1 8/3/1 5/4/1
f 5/1/2 8/2/2 10/3/2 9/4/2
f 9/1/3 10/2/3 12/3/3 11/4/3
f 11/1/4 12/2/4 7/3/4 6/4/4
f 1/1/5 2/2/5 8/3/5 7/4/5
f 2/1/5 4/2/5 10/3/5 8/4/5
f 4/1/5 3/2/5 12/3/5 10/4/5
f 3/1/5 1/2/5 7/3/5 12/4/5
f 5/1/6 9/2/6 11/3/6 6/4/6
usemtl ImageBoardPattern
f 4/1/5 2/2/5 1/3/5 3/4/5
